<svg width="24" height="24" viewBox="0 0 24 24" fill="none" xmlns="http://www.w3.org/2000/svg">
<path id="Vector" d="M20.832 3.36712L8.66799 0.108122C8.26864 0.0010513 7.85211 -0.0263026 7.44219 0.0276224C7.03226 0.0815474 6.63698 0.215695 6.27891 0.422404C5.92083 0.629113 5.60699 0.904335 5.35529 1.23235C5.1036 1.56037 4.91898 1.93475 4.81199 2.33412L0.942991 16.7771C0.835921 17.1765 0.808567 17.593 0.862492 18.0029C0.916417 18.4128 1.05056 18.8081 1.25727 19.1662C1.46398 19.5243 1.7392 19.8381 2.06722 20.0898C2.39524 20.3415 2.76962 20.5261 3.16899 20.6331L15.332 23.8921C16.1384 24.1081 16.9975 23.9949 17.7204 23.5774C18.4434 23.16 18.9709 22.4725 19.187 21.6661L23.057 7.22312C23.1641 6.82377 23.1914 6.40724 23.1375 5.99732C23.0836 5.58739 22.9494 5.19211 22.7427 4.83404C22.536 4.47596 22.2608 4.16212 21.9328 3.91042C21.6047 3.65873 21.2304 3.47411 20.831 3.36712H20.832ZM6.33199 2.74112C6.38549 2.54144 6.47779 2.35424 6.60364 2.19024C6.72949 2.02623 6.88641 1.88862 7.06545 1.78526C7.24449 1.68191 7.44213 1.61483 7.64709 1.58787C7.85205 1.56091 8.06032 1.57459 8.25999 1.62812L20.423 4.88812C20.8261 4.99617 21.1697 5.25986 21.3784 5.62121C21.5871 5.98256 21.6438 6.412 21.536 6.81512L17.666 21.2591C17.6125 21.4588 17.5202 21.646 17.3943 21.81C17.2685 21.974 17.1116 22.1116 16.9325 22.215C16.7535 22.3183 16.5559 22.3854 16.3509 22.4124C16.1459 22.4393 15.9377 22.4257 15.738 22.3721L3.57499 19.1121C3.17193 19.0041 2.82827 18.7404 2.61956 18.379C2.41085 18.0177 2.35417 17.5882 2.46199 17.1851L6.33299 2.74012L6.33199 2.74112ZM8.96599 5.07712C8.8653 5.04755 8.75972 5.03842 8.65545 5.05026C8.55118 5.0621 8.45033 5.09468 8.35884 5.14607C8.26734 5.19746 8.18705 5.26663 8.12268 5.34951C8.05831 5.43239 8.01117 5.52731 7.98403 5.62868C7.95688 5.73005 7.95029 5.83582 7.96463 5.93978C7.97897 6.04373 8.01395 6.14377 8.06753 6.234C8.1211 6.32424 8.19218 6.40285 8.27658 6.46521C8.36098 6.52757 8.457 6.57242 8.55899 6.59712L17.681 9.04112C17.7817 9.07069 17.8873 9.07982 17.9915 9.06798C18.0958 9.05614 18.1967 9.02357 18.2881 8.97218C18.3796 8.92078 18.4599 8.85161 18.5243 8.76873C18.5887 8.68585 18.6358 8.59093 18.663 8.48957C18.6901 8.3882 18.6967 8.28242 18.6824 8.17847C18.668 8.07451 18.633 7.97447 18.5795 7.88424C18.5259 7.794 18.4548 7.71539 18.3704 7.65303C18.286 7.59067 18.19 7.54582 18.088 7.52112L8.96699 5.07712H8.96599ZM6.98499 9.43412C7.03891 9.23261 7.17063 9.06075 7.35121 8.95631C7.53178 8.85186 7.74643 8.82338 7.94799 8.87712L17.071 11.3221C17.2696 11.3788 17.438 11.5113 17.5398 11.6911C17.6417 11.8708 17.6687 12.0834 17.6151 12.2829C17.5616 12.4825 17.4317 12.6529 17.2536 12.7575C17.0755 12.8622 16.8633 12.8925 16.663 12.8421L7.54099 10.3981C7.33944 10.344 7.16764 10.212 7.06338 10.0313C6.95911 9.85047 6.93091 9.63569 6.98499 9.43412ZM6.92999 12.6781C6.73031 12.6298 6.51963 12.6614 6.34297 12.7663C6.1663 12.8712 6.03766 13.041 5.98452 13.2394C5.93138 13.4379 5.95795 13.6493 6.05857 13.8284C6.15918 14.0076 6.32586 14.1402 6.52299 14.1981L11.843 15.6251C12.0433 15.6755 12.2555 15.6452 12.4336 15.5405C12.6117 15.4359 12.7416 15.2655 12.7951 15.0659C12.8487 14.8664 12.8217 14.6538 12.7198 14.4741C12.618 14.2943 12.4496 14.1618 12.251 14.1051L6.92999 12.6771V12.6781Z" fill="#3A3A3A"/>
</svg>
