<svg width="18" height="18" viewBox="0 0 18 18" fill="none" xmlns="http://www.w3.org/2000/svg">
<g id="Group 8">
<path id="Vector" d="M15.44 0.0599976H2.56C1.89752 0.0618447 1.26271 0.32583 0.794271 0.794271C0.32583 1.26271 0.0618447 1.89752 0.0599976 2.56V15.44C0.0618447 16.1025 0.32583 16.7373 0.794271 17.2057C1.26271 17.6742 1.89752 17.9382 2.56 17.94H15.44C16.103 17.94 16.7389 17.6766 17.2078 17.2078C17.6766 16.7389 17.94 16.103 17.94 15.44V2.56C17.94 1.89696 17.6766 1.26107 17.2078 0.792231C16.7389 0.32339 16.103 0.0599976 15.44 0.0599976ZM16.94 15.44C16.9371 15.8369 16.7782 16.2168 16.4975 16.4975C16.2168 16.7782 15.8369 16.9371 15.44 16.94H2.56C2.16306 16.9371 1.7832 16.7782 1.50252 16.4975C1.22184 16.2168 1.06288 15.8369 1.06 15.44V2.56C1.06288 2.16306 1.22184 1.7832 1.50252 1.50252C1.7832 1.22184 2.16306 1.06288 2.56 1.06H15.44C15.8369 1.06288 16.2168 1.22184 16.4975 1.50252C16.7782 1.7832 16.9371 2.16306 16.94 2.56V15.44Z" fill="#3A3A3A"/>
<path id="Vector_2" d="M3.37598 7.74799C3.37598 7.48277 3.48133 7.22842 3.66887 7.04088C3.85641 6.85334 4.11076 6.74799 4.37598 6.74799C4.64119 6.74799 4.89555 6.85334 5.08308 7.04088C5.27062 7.22842 5.37598 7.48277 5.37598 7.74799V14.248C5.37598 14.5132 5.27062 14.7676 5.08308 14.9551C4.89555 15.1426 4.64119 15.248 4.37598 15.248C4.11076 15.248 3.85641 15.1426 3.66887 14.9551C3.48133 14.7676 3.37598 14.5132 3.37598 14.248V7.74799Z" fill="#3A3A3A"/>
<path id="Vector_3" d="M4.37598 4.74399C4.92826 4.74399 5.37598 4.29627 5.37598 3.74399C5.37598 3.1917 4.92826 2.74399 4.37598 2.74399C3.82369 2.74399 3.37598 3.1917 3.37598 3.74399C3.37598 4.29627 3.82369 4.74399 4.37598 4.74399Z" fill="#3A3A3A"/>
<path id="Vector_4" d="M14.62 10.37V14.25C14.62 14.5152 14.5147 14.7696 14.3271 14.9571C14.1396 15.1446 13.8852 15.25 13.62 15.25C13.3548 15.25 13.1004 15.1446 12.9129 14.9571C12.7254 14.7696 12.62 14.5152 12.62 14.25V10.37C12.62 9.94166 12.4499 9.53088 12.147 9.22801C11.8441 8.92514 11.4333 8.75499 11.005 8.75499C10.5767 8.75499 10.1659 8.92514 9.86304 9.22801C9.56017 9.53088 9.39001 9.94166 9.39001 10.37V14.25C9.39001 14.5152 9.28466 14.7696 9.09712 14.9571C8.90958 15.1446 8.65523 15.25 8.39001 15.25C8.1248 15.25 7.87044 15.1446 7.68291 14.9571C7.49537 14.7696 7.39001 14.5152 7.39001 14.25V7.74999C7.39414 7.48606 7.50082 7.23409 7.68747 7.04744C7.87412 6.86079 8.12608 6.75411 8.39001 6.74999C8.55939 6.74535 8.72687 6.78658 8.87474 6.86931C9.0226 6.95205 9.14536 7.07321 9.23001 7.21999C9.77983 6.90802 10.4019 6.74595 11.0341 6.74999C11.6662 6.75403 12.2862 6.92404 12.832 7.243C13.3778 7.56197 13.8302 8.0187 14.144 8.56748C14.4578 9.11626 14.622 9.73783 14.62 10.37Z" fill="#3A3A3A"/>
</g>
</svg>
